HIERARCHY
ROOT joint_Root
{
	OFFSET 0.0 0.0 0.0
	CHANNELS 6 Xposition Yposition Zposition Zrotation Xrotation Yrotation 
	JOINT Hips
	{
		OFFSET 4.5925 91.4895 -427.239
		CHANNELS 6 Xposition Yposition Zposition Zrotation Xrotation Yrotation 
		JOINT Spine
		{
			OFFSET 15.7357 0.0 0.0
			CHANNELS 6 Xposition Yposition Zposition Zrotation Xrotation Yrotation 
			JOINT Chest
			{
				OFFSET 8.98455 -0.406207 0.0
				CHANNELS 6 Xposition Yposition Zposition Zrotation Xrotation Yrotation 
				JOINT Neck
				{
					OFFSET 16.3773 0.0 0.0
					CHANNELS 6 Xposition Yposition Zposition Zrotation Xrotation Yrotation 
					JOINT Head
					{
						OFFSET 6.45672 0.0 0.0
						CHANNELS 6 Xposition Yposition Zposition Zrotation Xrotation Yrotation 
						End Site
						{
							OFFSET 0.0 0.0 0.0
						}
					}
				}
				JOINT Shoulder_L
				{
					OFFSET 12.9942 -0.242716 4.98039
					CHANNELS 6 Xposition Yposition Zposition Zrotation Xrotation Yrotation 
					JOINT UpperArm_L
					{
						OFFSET 5.34809 0.0 0.0
						CHANNELS 6 Xposition Yposition Zposition Zrotation Xrotation Yrotation 
						JOINT LowerArm_L
						{
							OFFSET 24.3286 1.87007e-05 0.0
							CHANNELS 6 Xposition Yposition Zposition Zrotation Xrotation Yrotation 
							JOINT Hand_L
							{
								OFFSET 22.2916 0.0 0.0
								CHANNELS 6 Xposition Yposition Zposition Zrotation Xrotation Yrotation 
								End Site
								{
									OFFSET 0.0 0.0 0.0
								}
							}
						}
					}
				}
				JOINT Shoulder_R
				{
					OFFSET 12.9945 -0.242716 -4.98039
					CHANNELS 6 Xposition Yposition Zposition Zrotation Xrotation Yrotation 
					JOINT UpperArm_R
					{
						OFFSET -5.34813 0.0 0.0
						CHANNELS 6 Xposition Yposition Zposition Zrotation Xrotation Yrotation 
						JOINT LowerArm_R
						{
							OFFSET -24.3289 0.000322201 0.0
							CHANNELS 6 Xposition Yposition Zposition Zrotation Xrotation Yrotation 
							JOINT Hand_R
							{
								OFFSET -22.2915 -0.000108084 0.0
								CHANNELS 6 Xposition Yposition Zposition Zrotation Xrotation Yrotation 
								End Site
								{
									OFFSET 0.0 0.0 0.0
								}
							}
						}
					}
				}
			}
		}
		JOINT UpperLeg_L
		{
			OFFSET -2.19248 -6.46944 0.0
			CHANNELS 6 Xposition Yposition Zposition Zrotation Xrotation Yrotation 
			JOINT LowerLeg_L
			{
				OFFSET 39.0811 0.0 -1.23785e-05
				CHANNELS 6 Xposition Yposition Zposition Zrotation Xrotation Yrotation 
				JOINT Foot_L
				{
					OFFSET 40.9854 0.0 -1.26872e-05
					CHANNELS 6 Xposition Yposition Zposition Zrotation Xrotation Yrotation 
					JOINT Toes_L
					{
						OFFSET 11.7543 0.0 0.0
						CHANNELS 6 Xposition Yposition Zposition Zrotation Xrotation Yrotation 
						End Site
						{
							OFFSET 0.0 0.0 0.0
						}
					}
				}
			}
		}
		JOINT UpperLeg_R
		{
			OFFSET -2.19251 6.46944 0.0
			CHANNELS 6 Xposition Yposition Zposition Zrotation Xrotation Yrotation 
			JOINT LowerLeg_R
			{
				OFFSET -39.0811 -0.00228153 -0.0401928
				CHANNELS 6 Xposition Yposition Zposition Zrotation Xrotation Yrotation 
				JOINT Foot_R
				{
					OFFSET -40.9854 0.0 0.0
					CHANNELS 6 Xposition Yposition Zposition Zrotation Xrotation Yrotation 
					JOINT Toes_R
					{
						OFFSET -11.7543 0.0 0.0
						CHANNELS 6 Xposition Yposition Zposition Zrotation Xrotation Yrotation 
						End Site
						{
							OFFSET 0.0 0.0 0.0
						}
					}
				}
			}
		}
	}
}
MOTION
Frames:	7
Frame Time:	0.0333333
0.000000 0.000000 0.000000 0.000000 0.000000 -0.000000 -0.433797 90.403200 1.457880 90.415500 -1.230140 9.713330 15.735700 0.000005 -0.000001 87.706300 82.111900 -87.872200 8.984550 -0.406207 -0.000000 7.997070 -0.629034 -0.287671 16.377300 -0.000001 -0.000001 7.476920 -2.987420 4.098250 6.456720 -0.000001 -0.000000 -2.215830 -2.443210 8.015380 12.994200 -0.242716 4.980390 -91.724200 5.923490 -73.739300 5.348090 -0.000007 -0.000001 -61.176000 41.660600 -18.200500 24.328600 0.000019 0.000005 8.668240 22.629400 -21.614500 22.291600 -0.000001 0.000005 9.508940 5.322770 -0.575645 12.994500 -0.242716 -4.980390 88.275700 11.484200 -81.402000 -5.348130 -0.000001 -0.000004 -62.458100 30.764700 -12.035800 -24.328900 0.000322 -0.000009 1.917270 5.528180 -19.171400 -22.291500 -0.000108 -0.000004 13.797100 5.405920 -3.130780 -2.192480 -6.469440 -0.000000 -175.519000 -12.265900 1.466580 39.081100 -0.000007 -0.000012 -0.194583 0.324848 30.921800 40.985400 -0.000006 -0.000013 0.464052 5.665170 -72.457900 11.754300 -0.000000 0.000003 -0.000189 -0.001766 -16.644300 -2.192510 6.469440 -0.000001 171.903000 22.541300 -176.817000 -39.081100 -0.002282 -0.040193 -0.114050 0.194116 31.154400 -40.985400 0.000008 0.000006 3.641470 9.172420 -73.702300 -11.754300 -0.000006 -0.000006 -0.002254 -0.031847 -17.868100
0.000000 0.000000 0.000000 0.000000 0.000000 -0.000000 -0.441666 90.401500 1.372610 90.421900 -1.226130 9.866240 15.735700 0.000005 -0.000001 87.963200 82.085700 -88.220700 8.984550 -0.406207 -0.000000 8.051730 -0.560759 -0.474992 16.377300 -0.000001 -0.000001 7.733820 -2.884900 3.920870 6.456720 -0.000001 -0.000000 -2.009010 -2.353080 7.355430 12.994200 -0.242716 4.980390 -91.689500 5.807700 -73.749100 5.348090 -0.000007 -0.000001 -61.143100 41.910500 -18.383500 24.328600 0.000019 0.000005 8.809790 22.621500 -21.945800 22.291600 -0.000001 0.000005 9.547110 5.319340 -0.476696 12.994500 -0.242716 -4.980390 88.316000 11.314600 -81.477500 -5.348130 -0.000001 -0.000004 -62.620600 30.340500 -12.111100 -24.328900 0.000322 -0.000009 1.996340 5.609420 -19.635900 -22.291500 -0.000108 -0.000004 13.774900 5.406630 -3.154050 -2.192480 -6.469440 -0.000000 -175.508000 -12.226300 1.531970 39.081100 -0.000007 -0.000012 -0.197574 0.329148 30.975000 40.985400 -0.000006 -0.000013 0.449065 5.605280 -72.422100 11.754300 -0.000000 0.000003 -0.000190 -0.001777 -16.644700 -2.192510 6.469440 -0.000001 171.854000 22.557300 -176.747000 -39.081100 -0.002282 -0.040193 -0.114706 0.194687 31.221300 -40.985400 0.000008 0.000006 3.671900 9.182580 -73.682800 -11.754300 -0.000006 -0.000006 -0.002154 -0.030630 -17.818600
0.000000 0.000000 0.000000 0.000000 0.000000 -0.000000 -0.451892 90.400800 1.266890 90.411600 -1.246170 10.023200 15.735700 0.000005 -0.000001 88.244400 82.070000 -88.587900 8.984550 -0.406207 -0.000000 8.085430 -0.484733 -0.652079 16.377300 -0.000001 -0.000001 8.081790 -2.781520 3.716690 6.456720 -0.000001 -0.000000 -1.810110 -2.265470 6.634690 12.994200 -0.242716 4.980390 -91.651500 5.682780 -73.765700 5.348090 -0.000007 -0.000001 -61.199700 42.052000 -18.519300 24.328600 0.000019 0.000005 8.797550 22.423600 -22.083500 22.291600 -0.000001 0.000005 9.568320 5.322490 -0.567587 12.994500 -0.242716 -4.980390 88.359500 11.134100 -81.563900 -5.348130 -0.000001 -0.000004 -62.799400 29.292000 -12.095300 -24.328900 0.000322 -0.000009 2.046780 5.460440 -20.595100 -22.291500 -0.000108 -0.000004 13.900800 5.407510 -3.182970 -2.192480 -6.469440 -0.000000 -175.469000 -12.232000 1.589780 39.081100 -0.000007 -0.000012 -0.194402 0.323030 31.040100 40.985400 -0.000006 -0.000013 0.456567 5.616710 -72.385500 11.754300 -0.000000 0.000003 -0.000185 -0.001735 -16.643200 -2.192510 6.469440 -0.000001 171.837000 22.553300 -176.690000 -39.081100 -0.002282 -0.040193 -0.112814 0.191080 31.285800 -40.985400 0.000008 0.000006 3.712680 9.192530 -73.652000 -11.754300 -0.000006 -0.000006 -0.002194 -0.031115 -17.838400
0.000000 0.000000 0.000000 0.000000 0.000000 -0.000000 -0.463080 90.407200 1.142870 90.399700 -1.295520 10.120900 15.735700 0.000005 -0.000001 88.540400 82.059300 -88.969600 8.984550 -0.406207 -0.000000 8.109080 -0.404045 -0.828927 16.377300 -0.000001 -0.000001 8.399170 -2.679180 3.476640 6.456720 -0.000001 -0.000000 -1.598100 -2.163950 5.870910 12.994200 -0.242716 4.980390 -91.624900 5.591270 -73.767000 5.348090 -0.000007 -0.000001 -61.180100 42.115600 -18.676500 24.328600 0.000019 0.000005 8.850950 22.329100 -22.287000 22.291600 -0.000001 0.000005 9.548690 5.320920 -0.522268 12.994500 -0.242716 -4.980390 88.389100 10.962300 -81.587400 -5.348130 -0.000001 -0.000004 -62.734400 28.014300 -12.211500 -24.328900 0.000322 -0.000009 1.974250 4.865400 -22.130100 -22.291500 -0.000108 -0.000004 14.179100 5.410120 -3.269470 -2.192480 -6.469440 -0.000000 -175.445000 -12.248800 1.577010 39.081100 -0.000007 -0.000012 -0.193940 0.321667 31.087000 40.985400 -0.000006 -0.000013 0.451738 5.589350 -72.319100 11.754300 -0.000000 0.000003 -0.000195 -0.001815 -16.646100 -2.192510 6.469440 -0.000001 171.870000 22.505900 -176.720000 -39.081100 -0.002282 -0.040193 -0.110427 0.186742 31.341500 -40.985400 0.000008 0.000006 3.824610 9.190500 -73.612500 -11.754300 -0.000006 -0.000006 -0.002312 -0.032551 -17.896700
0.000000 0.000000 0.000000 0.000000 0.000000 -0.000000 -0.466443 90.403800 1.041150 90.379500 -1.333480 10.317300 15.735700 0.000005 -0.000001 88.744700 82.015900 -89.256300 8.984550 -0.406207 -0.000000 8.196990 -0.350171 -0.997164 16.377300 -0.000001 -0.000001 8.744590 -2.569030 3.289000 6.456720 -0.000001 -0.000000 -1.368900 -2.021490 4.966600 12.994200 -0.242716 4.980390 -91.609300 5.536290 -73.764000 5.348090 -0.000007 -0.000001 -61.162500 42.068200 -18.761800 24.328600 0.000019 0.000005 8.877190 22.214500 -22.446100 22.291600 -0.000001 0.000005 9.584920 5.322870 -0.578995 12.994500 -0.242716 -4.980390 88.414200 10.750500 -81.558100 -5.348130 -0.000001 -0.000004 -62.459700 26.559400 -12.526300 -24.328900 0.000322 -0.000009 1.917470 4.276240 -24.192700 -22.291500 -0.000108 -0.000004 14.410500 5.412870 -3.359920 -2.192480 -6.469440 -0.000000 -175.400000 -12.227600 1.668250 39.081100 -0.000007 -0.000012 -0.192377 0.318057 31.168000 40.985400 -0.000006 -0.000013 0.451752 5.554820 -72.293100 11.754300 -0.000000 0.000003 -0.000185 -0.001733 -16.643100 -2.192510 6.469440 -0.000001 171.808000 22.550900 -176.606000 -39.081100 -0.002282 -0.040193 -0.113555 0.191501 31.391500 -40.985400 0.000008 0.000006 3.738800 9.293440 -73.546800 -11.754300 -0.000006 -0.000006 -0.002271 -0.032062 -17.876900
0.000000 0.000000 0.000000 0.000000 0.000000 -0.000000 -0.462279 90.407300 0.909273 90.383700 -1.433640 10.461400 15.735700 0.000005 -0.000001 88.986700 81.998800 -89.588900 8.984550 -0.406207 -0.000000 8.232740 -0.284166 -1.182700 16.377300 -0.000001 -0.000001 9.147260 -2.445410 3.069460 6.456720 -0.000001 -0.000000 -1.066710 -1.850580 4.037870 12.994200 -0.242716 4.980390 -91.591400 5.468100 -73.745900 5.348090 -0.000007 -0.000001 -61.181700 41.940000 -18.795900 24.328600 0.000019 0.000005 8.951300 22.304300 -22.539700 22.291600 -0.000001 0.000005 9.484130 5.323190 -0.587961 12.994500 -0.242716 -4.980390 88.435100 10.499700 -81.474000 -5.348130 -0.000001 -0.000004 -61.955700 25.010200 -13.047100 -24.328900 0.000322 -0.000009 1.857070 3.687100 -26.772000 -22.291500 -0.000108 -0.000004 14.886200 5.419810 -3.592550 -2.192480 -6.469440 -0.000000 -175.378000 -12.275900 1.713990 39.081100 -0.000007 -0.000012 -0.193833 0.319917 31.211300 40.985400 -0.000006 -0.000013 0.440127 5.496430 -72.231100 11.754300 -0.000000 0.000003 -0.000190 -0.001772 -16.644500 -2.192510 6.469440 -0.000001 171.772000 22.522000 -176.589000 -39.081100 -0.002282 -0.040193 -0.115908 0.194879 31.454000 -40.985400 0.000008 0.000006 3.756330 9.390220 -73.486900 -11.754300 -0.000006 -0.000006 -0.002253 -0.031835 -17.867600
0.000000 0.000000 0.000000 0.000000 0.000000 -0.000000 -0.452124 90.408300 0.768221 90.357300 -1.595370 10.602100 15.735700 0.000005 -0.000001 89.253000 81.981700 -89.934800 8.984550 -0.406207 -0.000000 8.268410 -0.211121 -1.347190 16.377300 -0.000001 -0.000001 9.541930 -2.292200 2.875560 6.456720 -0.000001 -0.000000 -0.689782 -1.592410 2.966030 12.994200 -0.242716 4.980390 -91.568900 5.390320 -73.745500 5.348090 -0.000007 -0.000001 -61.249600 41.703700 -18.723900 24.328600 0.000019 0.000005 8.980460 22.321200 -22.592200 22.291600 -0.000001 0.000005 9.446670 5.324700 -0.631511 12.994500 -0.242716 -4.980390 88.475900 10.179000 -81.438200 -5.348130 -0.000001 -0.000004 -61.248400 23.273900 -13.788700 -24.328900 0.000322 -0.000009 1.795780 3.128650 -29.894300 -22.291500 -0.000108 -0.000004 15.151800 5.423390 -3.713490 -2.192480 -6.469440 -0.000000 -175.327000 -12.376000 1.720140 39.081100 -0.000007 -0.000012 -0.195279 0.321166 31.301300 40.985400 -0.000006 -0.000013 0.455219 5.471310 -72.179200 11.754300 -0.000000 0.000003 -0.000186 -0.001740 -16.643300 -2.192510 6.469440 -0.000001 171.825000 22.368500 -176.632000 -39.081100 -0.002282 -0.040193 -0.113051 0.189546 31.543000 -40.985400 0.000008 0.000006 3.836000 9.384170 -73.430500 -11.754300 -0.000006 -0.000006 -0.002395 -0.033551 -17.937400
